<?xml version="1.0" encoding="UTF-8"?>
<svg xmlns="http://www.w3.org/2000/svg" version="1.1" viewBox="0 0 96 96">
  <defs>
    <style>
      .cls-1 {
        fill: #2a9d8f;
      }

      .cls-2 {
        fill: #264653;
      }

      .cls-3 {
        fill: #e9c46a;
      }
    </style>
  </defs>
  <!-- Generator: Adobe Illustrator 28.6.0, SVG Export Plug-In . SVG Version: 1.2.0 Build 709)  -->
  <g>
    <g id="Layer_1">
      <path class="cls-1" d="M46,74c-2.5,3.7-4,8.1-4,13v1H10v-2c0-11,9-20,20-20s12.4,3.2,16,8Z"/>
      <path class="cls-2" d="M31,62h-11v-11c0-5,4-9,9-9h11v11c0,5-4,9-9,9Z"/>
      <path class="cls-2" d="M65,64h0c12.7,0,23,10.3,23,23v1h-46v-1c0-12.7,10.3-23,23-23Z"/>
      <path class="cls-1" d="M62.8,58h13.2v-13.2c0-6-4.8-10.8-10.8-10.8h-13.2v13.2c0,6,4.8,10.8,10.8,10.8Z"/>
      <path class="cls-1" d="M33.9,11.4c2.8-.2,5.3,1.9,5.5,4.8l1.4,18.8-10.4-5.2-12.8.9c-2.8.2-5.3-1.9-5.5-4.8l-.9-12.8,22.8-1.7Z"/>
      <path class="cls-3" d="M57.2,4c-2.9,0-5.2,2.3-5.2,5.2v18.8l10-6h12.8c2.9,0,5.2-2.3,5.2-5.2V4h-22.8Z"/>
    </g>
  </g>
</svg>