<?xml version="1.0" encoding="UTF-8"?>
<svg xmlns="http://www.w3.org/2000/svg" version="1.1" viewBox="0 0 96 96">
  <defs>
    <style>
      .cls-1 {
        fill: #2a9d8f;
      }

      .cls-2 {
        fill: #264653;
      }

      .cls-3 {
        fill: #e9c46a;
      }
    </style>
  </defs>
  <!-- Generator: Adobe Illustrator 28.6.0, SVG Export Plug-In . SVG Version: 1.2.0 Build 709)  -->
  <g>
    <g id="Layer_1">
      <path class="cls-2" d="M38,59c0-3.4,1.9-6.3,4.7-7.8-.4-1-.7-2-.7-3.2,0-4.4,3.6-8,8-8,0-4.4,3.6-8,8-8s1.6.2,2.4.4c2.7-5.5,2.1-11.9-2.4-16.4-5.5-5.5-14.5-5.5-20,0l-4,4-4-4c-5.5-5.5-14.5-5.5-20,0-5.5,5.5-5.1,14.1,0,20l24,28s0,0,4-4.7c0-.1,0-.2,0-.3Z"/>
      <path class="cls-3" d="M64,34.8c-1.5-1.7-3.6-2.8-6-2.8-4.4,0-8,3.6-8,8-4.4,0-8,3.6-8,8s.2,2.2.7,3.2c-2.8,1.5-4.7,4.4-4.7,7.8s1.3,5.2,3.2,6.8c-.7,1.2-1.2,2.6-1.2,4.2,0,4,2.9,7.3,6.8,7.9,1.5,3.6,5.1,6.1,9.2,6.1s6.2-1.6,8-4.1v-45.2Z"/>
      <path class="cls-1" d="M90,59c0-3.4-1.9-6.3-4.7-7.8.4-1,.7-2,.7-3.2,0-4.4-3.6-8-8-8,0-4.4-3.6-8-8-8s-4.5,1.1-6,2.8v45.2c1.8,2.4,4.7,4.1,8,4.1s7.7-2.5,9.2-6.1c3.8-.6,6.8-3.9,6.8-7.9s-.5-3-1.2-4.2c1.9-1.7,3.2-4.1,3.2-6.8Z"/>
    </g>
  </g>
</svg>