<?xml version="1.0" encoding="UTF-8"?>
<svg xmlns="http://www.w3.org/2000/svg" version="1.1" viewBox="0 0 96 96">
  <defs>
    <style>
      .cls-1 {
        fill: #2a9d8f;
      }

      .cls-2 {
        fill: #264653;
      }

      .cls-3 {
        fill: #e9c46a;
      }
    </style>
  </defs>
  <!-- Generator: Adobe Illustrator 28.6.0, SVG Export Plug-In . SVG Version: 1.2.0 Build 709)  -->
  <g>
    <g id="Layer_1">
      <path class="cls-2" d="M85.2,63.6l-9.2-18.4v-20.5c3.7-4.5,6-10.3,6-16.6h-40c-6.7,0-12.5,4.1-14.8,10h-1.2c-8.8,0-16,7.2-16,16v42c5,0,9.7-1.4,13.7-3.9,0,0,0,0,0,0,5.1,9.4,15,15.8,26.4,15.8h26v-20h6.5c2.2,0,3.7-2.4,2.7-4.4Z"/>
      <circle class="cls-3" cx="44.2" cy="47.6" r="11.1"/>
      <path class="cls-1" d="M65.1,53.5l-2.5,4.3c-.9,1.5-2.7,2.3-4.4,1.9l-4.4-1.1c-1.1.8-2.3,1.5-3.6,2.1l-2.1,7.2h-5c-1.8,0-3.3-1.2-3.8-2.9l-1.3-4.4c-1.3-.5-2.5-1.2-3.6-2.1l-7.3,1.8-2.5-4.3c-.9-1.5-.7-3.5.6-4.8l3.1-3.3c0-.7-.1-1.4-.1-2.1s0-1.4.1-2.1l-5.2-5.5,2.5-4.3c.9-1.5,2.7-2.3,4.4-1.9l4.4,1.1c1.1-.8,2.3-1.5,3.6-2.1l2.1-7.2h5c1.8,0,3.3,1.2,3.8,2.9l1.3,4.4c1.3.5,2.5,1.2,3.6,2.1l7.3-1.8,2.5,4.3c.9,1.5.7,3.5-.6,4.8l-3.1,3.3c0,.7.1,1.4.1,2.1s0,1.4-.1,2.1l5.2,5.5ZM44,38c-4.4,0-8,3.6-8,8s3.6,8,8,8,8-3.6,8-8-3.6-8-8-8Z"/>
    </g>
  </g>
</svg>