<?xml version="1.0" encoding="UTF-8"?>
<svg xmlns="http://www.w3.org/2000/svg" version="1.1" viewBox="0 0 96 96">
  <defs>
    <style>
      .cls-1 {
        fill: #2a9d8f;
      }

      .cls-2 {
        fill: #264653;
      }

      .cls-3 {
        fill: #e9c46a;
      }
    </style>
  </defs>
  <!-- Generator: Adobe Illustrator 28.6.0, SVG Export Plug-In . SVG Version: 1.2.0 Build 709)  -->
  <g>
    <g id="Layer_1">
      <polygon class="cls-1" points="18 32 10 32 10 10 32 10 32 18 18 18 18 32"/>
      <polygon class="cls-1" points="18 78 18 64 10 64 10 86 32 86 32 78 18 78"/>
      <polygon class="cls-1" points="78 78 64 78 64 86 86 86 86 64 78 64 78 78"/>
      <polygon class="cls-3" points="78 18 78 32 86 32 86 10 64 10 64 18 78 18"/>
      <path class="cls-2" d="M48,50h0c-9.9,0-18,8.1-18,18v2h36v-2c0-9.9-8.1-18-18-18Z"/>
      <path class="cls-2" d="M50,46h-12v-12c0-4.4,3.6-8,8-8h12v12c0,4.4-3.6,8-8,8Z"/>
    </g>
  </g>
</svg>