<?xml version="1.0" encoding="UTF-8"?>
<svg xmlns="http://www.w3.org/2000/svg" version="1.1" viewBox="0 0 296.5 56.7">
  <defs>
    <style>
      .cls-1 {
        fill: #fff;
      }
    </style>
  </defs>
  <!-- Generator: Adobe Illustrator 28.6.0, SVG Export Plug-In . SVG Version: 1.2.0 Build 709)  -->
  <g>
    <g id="Layer_1">
      <g>
        <g>
          <path class="cls-1" d="M81.9,44.2h-5.1V15h5.1v12.1h13v-12.1h5.1v29.2h-5.1v-12.4h-13v12.4Z"/>
          <path class="cls-1" d="M114.5,44.8c-1.9,0-3.7-.4-5.2-1.3-1.5-.9-2.7-2.1-3.5-3.7-.9-1.6-1.3-3.4-1.3-5.4s.4-3.9,1.2-5.4c.8-1.6,2-2.8,3.5-3.7,1.5-.9,3.2-1.3,5.1-1.3s3.7.4,5.2,1.3c1.4.8,2.6,2,3.3,3.5.8,1.5,1.2,3.3,1.2,5.4v1.5h-17s0-3.1,0-3.1h12c0-1.4-.4-2.5-1.3-3.3-.9-.8-2-1.2-3.5-1.2s-2.1.2-2.9.7c-.8.5-1.4,1.2-1.8,2.2-.4,1-.6,2.1-.6,3.5,0,2.1.5,3.7,1.4,4.8.9,1.1,2.3,1.6,4.1,1.6s2.4-.3,3.3-.8c.9-.5,1.4-1.2,1.7-2.2h4.5c-.4,2.2-1.5,3.9-3.2,5.1-1.7,1.2-3.8,1.8-6.4,1.8Z"/>
          <path class="cls-1" d="M133.6,44.8c-2.1,0-3.7-.6-4.9-1.7-1.2-1.1-1.8-2.6-1.8-4.5s.6-3.3,1.9-4.3c1.3-1.1,3.1-1.7,5.4-1.9l5.9-.5v-.4c0-.9-.2-1.6-.5-2.2-.3-.5-.8-.9-1.4-1.2-.6-.3-1.3-.4-2.2-.4-1.4,0-2.5.3-3.3.9-.8.6-1.2,1.4-1.2,2.4h-4.2c0-1.4.4-2.7,1.1-3.7.7-1.1,1.8-1.9,3.1-2.5,1.3-.6,2.9-.9,4.7-.9s3.3.3,4.6.9c1.3.6,2.3,1.6,3,2.8.7,1.2,1,2.8,1,4.6v12h-4.3l-.4-2.9c-.4,1-1.2,1.8-2.5,2.5-1.2.6-2.6,1-4.1,1ZM135.2,41.1c1.5,0,2.7-.4,3.6-1.3.9-.9,1.3-2,1.3-3.6v-1l-4.1.3c-1.5.1-2.6.4-3.2.9-.6.5-1,1.1-1,1.9s.3,1.5.9,2c.6.5,1.4.7,2.5.7Z"/>
          <path class="cls-1" d="M154.6,44.2h-4.8V14.5h4.8v29.8Z"/>
          <path class="cls-1" d="M162.1,20.5c-.8,0-1.5-.3-2.1-.9-.6-.6-.9-1.3-.9-2.1s.3-1.5.9-2.1c.6-.6,1.3-.8,2.1-.8s1.5.3,2.1.8c.6.6.9,1.3.9,2.1s-.3,1.5-.9,2.1c-.6.6-1.3.9-2.1.9ZM159.7,44.2v-19.8h4.9v19.8h-4.9Z"/>
          <path class="cls-1" d="M174.5,44.2h-4.9v-19.8h4.5l.4,2.6c.6-1,1.5-1.8,2.6-2.3,1.1-.6,2.4-.8,3.7-.8,2.5,0,4.4.7,5.6,2.2,1.3,1.5,1.9,3.5,1.9,6v12.2h-4.9v-11c0-1.7-.4-2.9-1.1-3.7-.7-.8-1.8-1.2-3-1.2s-2.7.5-3.6,1.4-1.3,2.2-1.3,3.8v10.6Z"/>
          <path class="cls-1" d="M192.1,33.9c0-1.9.4-3.6,1.2-5.1.8-1.5,1.9-2.7,3.3-3.6s3.1-1.3,4.9-1.3,3.1.4,4.3,1.1c1.2.7,2,1.8,2.5,3.1l-.5.4.4-4h4.5v18.8c0,2.2-.4,4.1-1.3,5.7-.8,1.6-2,2.9-3.6,3.7-1.5.9-3.4,1.3-5.5,1.3s-5.1-.8-7-2.3c-1.8-1.5-2.9-3.6-3.2-6.2h4.9c.2,1.3.7,2.3,1.6,3,.9.7,2.1,1.1,3.7,1.1s3-.5,4-1.5c1-1,1.5-2.3,1.5-3.9v-4.9l.6.5c-.5,1.3-1.4,2.3-2.6,3-1.3.7-2.8,1.1-4.4,1.1s-3.5-.4-4.9-1.3c-1.4-.9-2.5-2-3.2-3.5-.8-1.5-1.2-3.2-1.2-5.1ZM197,33.8c0,1.1.2,2.1.7,3,.4.9,1.1,1.6,1.9,2.1.8.5,1.7.8,2.8.8s2.1-.2,2.9-.7c.8-.5,1.4-1.2,1.9-2,.4-.9.7-1.9.7-3s-.2-2.1-.6-3c-.4-.8-1-1.5-1.9-2-.8-.5-1.8-.7-2.9-.7s-2,.2-2.8.7c-.8.5-1.4,1.2-1.8,2-.4.9-.6,1.8-.6,2.9Z"/>
          <path class="cls-1" d="M217.8,53.4v-28.9h4.5l.3,3c.6-1.1,1.5-2,2.7-2.7,1.2-.6,2.6-.9,4-.9s3.5.4,4.9,1.3c1.4.9,2.4,2,3.2,3.6.8,1.5,1.2,3.3,1.2,5.4s-.4,3.9-1.1,5.5c-.7,1.6-1.8,2.9-3.1,3.8-1.4.9-3,1.4-5,1.4s-2.8-.3-4-.8-2.1-1.3-2.7-2.3v11.8h-4.9ZM222.7,34.4c0,1.2.2,2.2.7,3.1.5.9,1.1,1.6,1.9,2.1s1.8.8,2.9.8,2.1-.3,3-.8c.8-.5,1.5-1.2,1.9-2.1.4-.9.6-1.9.6-3.1s-.2-2.2-.6-3.1c-.4-.9-1.1-1.6-1.9-2.1-.8-.5-1.8-.8-3-.8s-2.1.3-2.9.8c-.8.5-1.5,1.2-1.9,2.1-.5.9-.7,2-.7,3.2Z"/>
          <path class="cls-1" d="M248.4,44.8c-2.1,0-3.7-.6-4.9-1.7-1.2-1.1-1.8-2.6-1.8-4.5s.6-3.3,1.9-4.3c1.3-1.1,3.1-1.7,5.4-1.9l5.9-.5v-.4c0-.9-.2-1.6-.5-2.2s-.8-.9-1.4-1.2c-.6-.3-1.3-.4-2.2-.4-1.4,0-2.5.3-3.3.9-.8.6-1.2,1.4-1.2,2.4h-4.2c0-1.4.4-2.7,1.1-3.7.7-1.1,1.8-1.9,3.1-2.5,1.3-.6,2.9-.9,4.7-.9s3.3.3,4.6.9c1.3.6,2.3,1.6,3,2.8.7,1.2,1,2.8,1,4.6v12h-4.3l-.4-2.9c-.4,1-1.2,1.8-2.5,2.5-1.2.6-2.6,1-4.1,1ZM250,41.1c1.5,0,2.7-.4,3.6-1.3.9-.9,1.3-2,1.3-3.6v-1l-4.1.3c-1.5.1-2.6.4-3.2.9-.6.5-1,1.1-1,1.9s.3,1.5.9,2,1.4.7,2.5.7Z"/>
          <path class="cls-1" d="M262.2,24.5h12.5v4.1h-12.5v-4.1ZM270.9,44.2h-4.9v-25.9h4.9v25.9Z"/>
          <path class="cls-1" d="M282.6,44.2h-4.9V14.5h4.9v12.6c.6-1,1.5-1.7,2.6-2.3,1.1-.6,2.4-.9,3.8-.9,2.4,0,4.3.7,5.5,2.2,1.3,1.5,1.9,3.5,1.9,6v12.2h-4.9v-11c0-1.1-.2-2-.5-2.8-.3-.7-.8-1.3-1.4-1.6-.6-.4-1.3-.5-2.2-.5s-1.9.2-2.6.7c-.7.4-1.3,1-1.7,1.8-.4.8-.6,1.7-.6,2.6v10.8Z"/>
        </g>
        <path class="cls-1" d="M50.2,56.7H6.5c-3.6,0-6.5-2.9-6.5-6.5V6.5C0,2.9,2.9,0,6.5,0h43.8c3.6,0,6.5,2.9,6.5,6.5v43.8c0,3.6-2.9,6.5-6.5,6.5ZM6.5,3c-1.9,0-3.5,1.6-3.5,3.5v43.8c0,1.9,1.6,3.5,3.5,3.5h43.8c1.9,0,3.5-1.6,3.5-3.5V6.5c0-1.9-1.6-3.5-3.5-3.5H6.5Z"/>
        <path class="cls-1" d="M50.2,56.7H15.7c-3.6,0-6.5-2.9-6.5-6.5V15.7c0-3.6,2.9-6.5,6.5-6.5h34.5c3.6,0,6.5,2.9,6.5,6.5v34.5c0,3.6-2.9,6.5-6.5,6.5ZM15.7,12.3c-1.9,0-3.5,1.6-3.5,3.5v34.5c0,1.9,1.6,3.5,3.5,3.5h34.5c1.9,0,3.5-1.6,3.5-3.5V15.7c0-1.9-1.6-3.5-3.5-3.5H15.7Z"/>
        <path class="cls-1" d="M50.2,56.7h-25.2c-3.6,0-6.5-2.9-6.5-6.5v-25.2c0-3.6,2.9-6.5,6.5-6.5h25.2c3.6,0,6.5,2.9,6.5,6.5v25.2c0,3.6-2.9,6.5-6.5,6.5ZM25,21.6c-1.9,0-3.5,1.6-3.5,3.5v25.2c0,1.9,1.6,3.5,3.5,3.5h25.2c1.9,0,3.5-1.6,3.5-3.5v-25.2c0-1.9-1.6-3.5-3.5-3.5h-25.2Z"/>
        <path class="cls-1" d="M50.2,56.7h-15.9c-3.6,0-6.5-2.9-6.5-6.5v-15.9c0-3.6,2.9-6.5,6.5-6.5h15.9c3.6,0,6.5,2.9,6.5,6.5v15.9c0,3.6-2.9,6.5-6.5,6.5ZM34.3,30.8c-1.9,0-3.5,1.6-3.5,3.5v15.9c0,1.9,1.6,3.5,3.5,3.5h15.9c1.9,0,3.5-1.6,3.5-3.5v-15.9c0-1.9-1.6-3.5-3.5-3.5h-15.9Z"/>
        <path class="cls-1" d="M50.2,56.7h-6.6c-3.6,0-6.5-2.9-6.5-6.5v-6.6c0-3.6,2.9-6.5,6.5-6.5h6.6c3.6,0,6.5,2.9,6.5,6.5v6.6c0,3.6-2.9,6.5-6.5,6.5ZM43.6,40.1c-1.9,0-3.5,1.6-3.5,3.5v6.6c0,1.9,1.6,3.5,3.5,3.5h6.6c1.9,0,3.5-1.6,3.5-3.5v-6.6c0-1.9-1.6-3.5-3.5-3.5h-6.6Z"/>
      </g>
    </g>
  </g>
</svg>